<?xml version="1.0"?>
<svg width="60" height="60" xmlns="http://www.w3.org/2000/svg" xmlns:svg="http://www.w3.org/2000/svg">
 <g class="layer">
  <title>Layer 1</title>
  <rect fill="#000000" fill-opacity="0" height="60" id="svg_1" rx="10" width="60"/>
  <circle cx="30" cy="30" fill="#bec6f4" id="svg_2" r="22"/>
  <path d="m30,53.5a23.5,23.5 0 1 1 23.5,-23.5a23.53,23.53 0 0 1 -23.5,23.5zm0,-44a20.5,20.5 0 1 0 20.5,20.5a20.52,20.52 0 0 0 -20.5,-20.5z" fill="#8d9cf4" id="svg_3"/>
  <path d="m16,22l16,0a4,4 0 0 1 4,4l0,12a0,0 0 0 1 0,0l-16,0a4,4 0 0 1 -4,-4l0,-12a0,0 0 0 1 0,0z" fill="#f1f3f4" id="svg_4"/>
  <path d="m36,39.5l-16,0a5.51,5.51 0 0 1 -5.5,-5.5l0,-12a1.5,1.5 0 0 1 1.5,-1.5l16,0a5.51,5.51 0 0 1 5.5,5.5l0,12a1.5,1.5 0 0 1 -1.5,1.5zm-18.5,-16l0,10.5a2.5,2.5 0 0 0 2.5,2.5l14.5,0l0,-10.5a2.5,2.5 0 0 0 -2.5,-2.5l-14.5,0z" fill="#8d9cf4" id="svg_5"/>
  <polygon fill="#f1f3f4" id="svg_6" points="36 26 44 22 44 38 36 34 36 26"/>
  <path d="m44,39.5a1.51,1.51 0 0 1 -0.67,-0.16l-8,-4a1.5,1.5 0 0 1 -0.83,-1.34l0,-8a1.5,1.5 0 0 1 0.83,-1.34l8,-4a1.5,1.5 0 0 1 2.17,1.34l0,16a1.5,1.5 0 0 1 -1.5,1.5zm-6.5,-6.43l5,2.5l0,-11.14l-5,2.5l0,6.14z" fill="#8d9cf4" id="svg_7"/>
  <path d="m8,31.5a1.5,1.5 0 0 1 -1.5,-1.5a23.53,23.53 0 0 1 23.5,-23.5a1.5,1.5 0 0 1 0,3a20.52,20.52 0 0 0 -20.5,20.5a1.5,1.5 0 0 1 -1.5,1.5z" fill="#aad4ff" id="svg_8"/>
 </g>
</svg>